<svg width="20" height="18" viewBox="0 0 20 18" fill="none" xmlns="http://www.w3.org/2000/svg">
<path d="M10 0C14.74 0 19 3.73 19 9.22C19.59 9.53 20 10.14 20 10.84V13.14C20 13.86 19.59 14.47 19 14.78V16C19 17.1 18.1 18 17 18H9V16H17V8.9C17 5.03 13.87 1.9 10 1.9C6.13 1.9 3 5.03 3 8.9V15H2C0.9 15 0 14.1 0 13V11C0 10.26 0.4 9.62 1 9.28C1 3.65 5.31 0 10 0Z" fill="white"/>
<path d="M8 10C8 10.5523 7.55228 11 7 11C6.44772 11 6 10.5523 6 10C6 9.44771 6.44772 9 7 9C7.55228 9 8 9.44771 8 10Z" fill="white"/>
<path d="M13 11C13.5523 11 14 10.5523 14 10C14 9.44771 13.5523 9 13 9C12.4477 9 12 9.44771 12 10C12 10.5523 12.4477 11 13 11Z" fill="white"/>
<path d="M13.9445 4.42738C15.0334 5.34797 15.7616 6.62414 16 8.03C12.88 8 10.19 6.19 8.88003 3.56C8.61875 4.86652 8.03825 6.08808 7.19026 7.11578C6.34227 8.14349 5.25316 8.94539 4.02003 9.45C3.76003 5.51 7.02003 3 10.05 3C11.476 3.00117 12.8555 3.5068 13.9445 4.42738Z" fill="white"/>
</svg>
