<svg width="16" height="16" viewBox="0 0 16 16" fill="none" xmlns="http://www.w3.org/2000/svg">
<path d="M16 3.69216H0V4.92278H16V3.69216Z" fill="#F5F5F5"/>
<path d="M15.1646 1.23079H0.835582C0.532207 1.58666 0.298738 2.00394 0.156738 2.46157H15.8434C15.7014 2.00394 15.468 1.58666 15.1646 1.23079Z" fill="#F5F5F5"/>
<path d="M16 6.15372H0V7.38435H16V6.15372Z" fill="#F5F5F5"/>
<path d="M16 8.61531H0V9.84593H16V8.61531Z" fill="#F5F5F5"/>
<path d="M16 11.0768H0V12.3075H16V11.0768Z" fill="#F5F5F5"/>
<path d="M15.8434 13.5385H0.156738C0.298707 13.9961 0.532207 14.4133 0.835582 14.7692H15.1646C15.468 14.4133 15.7014 13.9961 15.8434 13.5385Z" fill="#F5F5F5"/>
<path d="M12.5 0H3.49995C2.43282 0 1.47742 0.477719 0.835449 1.23078H15.1644C14.5225 0.477719 13.5671 0 12.5 0Z" fill="#FF4B55"/>
<path d="M16 4.92313H0V6.15375H16V4.92313Z" fill="#FF4B55"/>
<path d="M16 3.50001C16 3.13842 15.9452 2.78967 15.8433 2.46157H0.156656C0.0548438 2.78967 0 3.13842 0 3.50001V3.69232H16V3.50001Z" fill="#FF4B55"/>
<path d="M16 7.38471H0V8.61534H16V7.38471Z" fill="#FF4B55"/>
<path d="M16 12.5V12.3077H0V12.5C0 12.8616 0.0548438 13.2104 0.156656 13.5385H15.8433C15.9452 13.2104 16 12.8616 16 12.5Z" fill="#FF4B55"/>
<path d="M15.1645 14.7692H0.835449C1.47742 15.5223 2.43282 16 3.49995 16H12.5C13.5671 16 14.5225 15.5223 15.1645 14.7692Z" fill="#FF4B55"/>
<path d="M16 9.84626H0V11.0769H16V9.84626Z" fill="#FF4B55"/>
<path d="M8.61537 0H3.5C1.567 0 0 1.567 0 3.5V8.61537H8.61537V0Z" fill="#41479B"/>
<path d="M0.929622 1.34567C0.921435 1.37157 0.950903 1.39301 0.973028 1.3772L1.14375 1.2552L1.31447 1.3772C1.33656 1.39301 1.36606 1.37157 1.35787 1.34567L1.29459 1.1456L1.4634 1.02095C1.48525 1.00479 1.474 0.970135 1.44681 0.969916L1.237 0.968291L1.20118 0.860916C1.11125 0.939322 1.02547 1.02232 0.943997 1.10942L0.992966 1.1456L0.929622 1.34567Z" fill="#F5F5F5"/>
<path d="M1.17056 2.42988L1.23693 2.62894L1.44675 2.63057C1.4739 2.63079 1.48519 2.66544 1.46334 2.6816L1.29453 2.80626L1.35781 3.00632C1.366 3.03223 1.33653 3.05363 1.3144 3.03785L1.14368 2.91582L0.972966 3.03785C0.950872 3.05366 0.921372 3.03223 0.929559 3.00632L0.992841 2.80626L0.824028 2.6816C0.802184 2.66548 0.813434 2.63079 0.840591 2.63057L1.0504 2.62894L1.11678 2.42988C1.1255 2.4041 1.16197 2.4041 1.17056 2.42988Z" fill="#F5F5F5"/>
<path d="M1.17056 4.27151L1.23693 4.47058L1.44675 4.4722C1.4739 4.47242 1.48519 4.50708 1.46334 4.52323L1.29453 4.64789L1.35781 4.84795C1.366 4.87385 1.33653 4.89526 1.3144 4.87948L1.14368 4.75748L0.972966 4.87948C0.950872 4.89526 0.921372 4.87385 0.929559 4.84795L0.992841 4.64789L0.824028 4.52323C0.802184 4.50711 0.813434 4.47242 0.840591 4.4722L1.0504 4.47058L1.11678 4.27151C1.1255 4.24573 1.16197 4.24573 1.17056 4.27151Z" fill="#F5F5F5"/>
<path d="M1.17056 5.96361L1.23693 6.16267L1.44675 6.1643C1.4739 6.16452 1.48519 6.19917 1.46334 6.21533L1.29453 6.33998L1.35781 6.54004C1.366 6.56595 1.33653 6.58736 1.3144 6.57158L1.14368 6.44955L0.972966 6.57158C0.950872 6.58736 0.921372 6.56595 0.929559 6.54004L0.992841 6.33998L0.824028 6.21533C0.802184 6.1992 0.813434 6.16452 0.840591 6.1643L1.0504 6.16267L1.11678 5.96361C1.1255 5.93783 1.16197 5.93783 1.17056 5.96361Z" fill="#F5F5F5"/>
<path d="M1.17056 7.50333L1.23693 7.70239L1.44675 7.70401C1.4739 7.70423 1.48519 7.73889 1.46334 7.75505L1.29453 7.8797L1.35781 8.07976C1.366 8.10567 1.33653 8.12707 1.3144 8.11129L1.14368 7.98929L0.972966 8.11129C0.950872 8.12707 0.921372 8.10567 0.929559 8.07976L0.992841 7.8797L0.824028 7.75505C0.802184 7.73892 0.813434 7.70423 0.840591 7.70401L1.0504 7.70239L1.11678 7.50333C1.1255 7.47755 1.16197 7.47755 1.17056 7.50333Z" fill="#F5F5F5"/>
<path d="M1.97881 1.55568L2.04519 1.75475L2.255 1.75637C2.28216 1.75659 2.29344 1.79125 2.27159 1.80737L2.10278 1.93203L2.16606 2.13209C2.17425 2.158 2.14478 2.17943 2.12266 2.16362L1.952 2.04159L1.78128 2.16362C1.75919 2.17943 1.72969 2.158 1.73788 2.13209L1.80116 1.93203L1.63238 1.80737C1.61053 1.79125 1.62178 1.75656 1.64894 1.75637L1.85875 1.75475L1.92513 1.55568C1.93375 1.5299 1.97022 1.5299 1.97881 1.55568Z" fill="#F5F5F5"/>
<path d="M1.97888 3.39732L2.04525 3.59638L2.25506 3.598C2.28222 3.59822 2.2935 3.63288 2.27166 3.64903L2.10284 3.77369L2.16613 3.97375C2.17431 3.99966 2.14484 4.0211 2.12272 4.00529L1.952 3.88325L1.78128 4.00529C1.75919 4.0211 1.72969 3.99966 1.73788 3.97375L1.80116 3.77369L1.63238 3.64903C1.61053 3.63291 1.62178 3.59822 1.64894 3.598L1.85875 3.59638L1.92513 3.39732C1.93381 3.37153 1.97028 3.37153 1.97888 3.39732Z" fill="#F5F5F5"/>
<path d="M1.97888 5.14699L2.04525 5.34605L2.25506 5.34768C2.28222 5.3479 2.2935 5.38255 2.27166 5.39871L2.10284 5.52337L2.16613 5.72343C2.17431 5.74934 2.14484 5.77074 2.12272 5.75496L1.952 5.63293L1.78128 5.75496C1.75919 5.77078 1.72969 5.74934 1.73788 5.72343L1.80116 5.52337L1.63238 5.39871C1.61053 5.38259 1.62178 5.3479 1.64894 5.34768L1.85875 5.34605L1.92513 5.14699C1.93381 5.12124 1.97028 5.12124 1.97888 5.14699Z" fill="#F5F5F5"/>
<path d="M1.97888 6.71835L2.04525 6.91741L2.25506 6.91904C2.28222 6.91925 2.2935 6.95391 2.27166 6.97007L2.10284 7.09472L2.16613 7.29478C2.17431 7.32069 2.14484 7.34213 2.12272 7.32631L1.952 7.20431L1.78128 7.32631C1.75919 7.34213 1.72969 7.32069 1.73788 7.29478L1.80116 7.09472L1.63238 6.97007C1.61053 6.95394 1.62178 6.91925 1.64894 6.91904L1.85875 6.91741L1.92513 6.71835C1.93381 6.69257 1.97028 6.69257 1.97888 6.71835Z" fill="#F5F5F5"/>
<path d="M2.78699 0.769313L2.85336 0.968375L3.06317 0.97C3.09033 0.970219 3.10161 1.00488 3.07977 1.021L2.91095 1.14566L2.97424 1.34572C2.98242 1.37163 2.95295 1.39303 2.93083 1.37725L2.76011 1.25522L2.58939 1.37725C2.5673 1.39306 2.5378 1.37163 2.54598 1.34572L2.60927 1.14566L2.44048 1.021C2.41864 1.00488 2.42989 0.970188 2.45705 0.97L2.66686 0.968375L2.73323 0.769313C2.74192 0.743563 2.77839 0.743563 2.78699 0.769313Z" fill="#F5F5F5"/>
<path d="M2.78699 2.42988L2.85336 2.62894L3.06317 2.63057C3.09033 2.63079 3.10161 2.66544 3.07977 2.6816L2.91095 2.80626L2.97424 3.00632C2.98242 3.03223 2.95295 3.05363 2.93083 3.03785L2.76011 2.91582L2.58939 3.03785C2.5673 3.05366 2.5378 3.03223 2.54598 3.00632L2.60927 2.80626L2.44048 2.6816C2.41864 2.66548 2.42989 2.63079 2.45705 2.63057L2.66686 2.62894L2.73323 2.42988C2.74192 2.4041 2.77839 2.4041 2.78699 2.42988Z" fill="#F5F5F5"/>
<path d="M2.78699 4.27151L2.85336 4.47058L3.06317 4.4722C3.09033 4.47242 3.10161 4.50708 3.07977 4.52323L2.91095 4.64789L2.97424 4.84795C2.98242 4.87385 2.95295 4.89526 2.93083 4.87948L2.76011 4.75748L2.58939 4.87948C2.5673 4.89526 2.5378 4.87385 2.54598 4.84795L2.60927 4.64789L2.44048 4.52323C2.41864 4.50711 2.42989 4.47242 2.45705 4.4722L2.66686 4.47058L2.73323 4.27151C2.74192 4.24573 2.77839 4.24573 2.78699 4.27151Z" fill="#F5F5F5"/>
<path d="M2.78699 5.96361L2.85336 6.16267L3.06317 6.1643C3.09033 6.16452 3.10161 6.19917 3.07977 6.21533L2.91095 6.33998L2.97424 6.54004C2.98242 6.56595 2.95295 6.58736 2.93083 6.57158L2.76011 6.44955L2.58939 6.57158C2.5673 6.58736 2.5378 6.56595 2.54598 6.54004L2.60927 6.33998L2.44048 6.21533C2.41864 6.1992 2.42989 6.16452 2.45705 6.1643L2.66686 6.16267L2.73323 5.96361C2.74192 5.93783 2.77839 5.93783 2.78699 5.96361Z" fill="#F5F5F5"/>
<path d="M2.78699 7.50333L2.85336 7.70239L3.06317 7.70401C3.09033 7.70423 3.10161 7.73889 3.07977 7.75505L2.91095 7.8797L2.97424 8.07976C2.98242 8.10567 2.95295 8.12707 2.93083 8.11129L2.76011 7.98929L2.58939 8.11129C2.5673 8.12707 2.5378 8.10567 2.54598 8.07976L2.60927 7.8797L2.44048 7.75505C2.41864 7.73892 2.42989 7.70423 2.45705 7.70401L2.66686 7.70239L2.73323 7.50333C2.74192 7.47755 2.77839 7.47755 2.78699 7.50333Z" fill="#F5F5F5"/>
<path d="M3.59512 1.55568L3.66149 1.75475L3.87131 1.75637C3.89846 1.75659 3.90974 1.79125 3.88787 1.80737L3.71909 1.93203L3.78237 2.13209C3.79056 2.158 3.76109 2.17943 3.73896 2.16362L3.56824 2.04159L3.39752 2.16362C3.37543 2.17943 3.34593 2.158 3.35412 2.13209L3.4174 1.93203L3.24859 1.80737C3.22674 1.79125 3.23799 1.75656 3.26518 1.75637L3.47499 1.75475L3.54137 1.55568C3.55009 1.5299 3.58652 1.5299 3.59512 1.55568Z" fill="#F5F5F5"/>
<path d="M3.59512 3.39732L3.66149 3.59638L3.87131 3.598C3.89846 3.59822 3.90974 3.63288 3.88787 3.64903L3.71909 3.77369L3.78237 3.97375C3.79056 3.99966 3.76109 4.0211 3.73896 4.00529L3.56824 3.88325L3.39752 4.00529C3.37543 4.0211 3.34593 3.99966 3.35412 3.97375L3.4174 3.77369L3.24859 3.64903C3.22674 3.63291 3.23799 3.59822 3.26518 3.598L3.47499 3.59638L3.54137 3.39732C3.55009 3.37153 3.58652 3.37153 3.59512 3.39732Z" fill="#F5F5F5"/>
<path d="M3.59512 5.14699L3.66149 5.34605L3.87131 5.34768C3.89846 5.3479 3.90974 5.38255 3.88787 5.39871L3.71909 5.52337L3.78237 5.72343C3.79056 5.74934 3.76109 5.77074 3.73896 5.75496L3.56824 5.63293L3.39752 5.75496C3.37543 5.77078 3.34593 5.74934 3.35412 5.72343L3.4174 5.52337L3.24859 5.39871C3.22674 5.38259 3.23799 5.3479 3.26518 5.34768L3.47499 5.34605L3.54137 5.14699C3.55009 5.12124 3.58652 5.12124 3.59512 5.14699Z" fill="#F5F5F5"/>
<path d="M3.59512 6.71835L3.66149 6.91741L3.87131 6.91904C3.89846 6.91925 3.90974 6.95391 3.88787 6.97007L3.71909 7.09472L3.78237 7.29478C3.79056 7.32069 3.76109 7.34213 3.73896 7.32631L3.56824 7.20431L3.39752 7.32631C3.37543 7.34213 3.34593 7.32069 3.35412 7.29478L3.4174 7.09472L3.24859 6.97007C3.22674 6.95394 3.23799 6.91925 3.26518 6.91904L3.47499 6.91741L3.54137 6.71835C3.55009 6.69257 3.58652 6.69257 3.59512 6.71835Z" fill="#F5F5F5"/>
<path d="M4.40344 0.769313L4.46981 0.968375L4.67963 0.97C4.70678 0.970219 4.71806 1.00488 4.69619 1.021L4.52741 1.14566L4.59069 1.34572C4.59888 1.37163 4.56941 1.39303 4.54728 1.37725L4.37656 1.25522L4.20584 1.37725C4.18375 1.39306 4.15425 1.37163 4.16244 1.34572L4.22572 1.14566L4.05694 1.021C4.03509 1.00488 4.04634 0.970188 4.07353 0.97L4.28334 0.968375L4.34972 0.769313C4.35841 0.743563 4.39484 0.743563 4.40344 0.769313Z" fill="#F5F5F5"/>
<path d="M4.4034 2.42988L4.46978 2.62894L4.67959 2.63057C4.70675 2.63079 4.71803 2.66544 4.69615 2.6816L4.52737 2.80625L4.59068 3.00629C4.59887 3.03219 4.5694 3.0536 4.54728 3.03782L4.37656 2.91579L4.20584 3.03782C4.18375 3.05363 4.15425 3.03219 4.16244 3.00629L4.22572 2.80622L4.05694 2.68157C4.03509 2.66544 4.04634 2.63075 4.07353 2.63054L4.28334 2.62891L4.34972 2.42985C4.35837 2.4041 4.39481 2.4041 4.4034 2.42988Z" fill="#F5F5F5"/>
<path d="M4.40344 4.27151L4.46981 4.47058L4.67963 4.4722C4.70678 4.47242 4.71806 4.50708 4.69619 4.52323L4.52741 4.64789L4.59069 4.84795C4.59888 4.87385 4.56941 4.89526 4.54728 4.87948L4.37656 4.75748L4.20584 4.87948C4.18375 4.89526 4.15425 4.87385 4.16244 4.84795L4.22572 4.64789L4.05694 4.52323C4.03509 4.50711 4.04634 4.47242 4.07353 4.4722L4.28334 4.47058L4.34972 4.27151C4.35841 4.24573 4.39484 4.24573 4.40344 4.27151Z" fill="#F5F5F5"/>
<path d="M4.40344 5.96361L4.46981 6.16267L4.67963 6.1643C4.70678 6.16452 4.71806 6.19917 4.69619 6.21533L4.52741 6.33998L4.59069 6.54004C4.59888 6.56595 4.56941 6.58736 4.54728 6.57158L4.37656 6.44955L4.20584 6.57158C4.18375 6.58736 4.15425 6.56595 4.16244 6.54004L4.22572 6.33998L4.05694 6.21533C4.03509 6.1992 4.04634 6.16452 4.07353 6.1643L4.28334 6.16267L4.34972 5.96361C4.35841 5.93783 4.39484 5.93783 4.40344 5.96361Z" fill="#F5F5F5"/>
<path d="M4.40344 7.50333L4.46981 7.70239L4.67963 7.70401C4.70678 7.70423 4.71806 7.73889 4.69619 7.75505L4.52741 7.8797L4.59069 8.07976C4.59888 8.10567 4.56941 8.12707 4.54728 8.11129L4.37656 7.98929L4.20584 8.11129C4.18375 8.12707 4.15425 8.10567 4.16244 8.07976L4.22572 7.8797L4.05694 7.75505C4.03509 7.73892 4.04634 7.70423 4.07353 7.70401L4.28334 7.70239L4.34972 7.50333C4.35841 7.47755 4.39484 7.47755 4.40344 7.50333Z" fill="#F5F5F5"/>
<path d="M5.21157 1.55568L5.27795 1.75475L5.48776 1.75637C5.51492 1.75659 5.5262 1.79125 5.50432 1.80737L5.33551 1.93203L5.39879 2.13209C5.40698 2.158 5.37748 2.17943 5.35539 2.16362L5.18467 2.04159L5.01395 2.16362C4.99186 2.17943 4.96236 2.158 4.97054 2.13209L5.03382 1.93203L4.86504 1.80737C4.8432 1.79125 4.85445 1.75656 4.88161 1.75637L5.09142 1.75475L5.15779 1.55568C5.16654 1.5299 5.20298 1.5299 5.21157 1.55568Z" fill="#F5F5F5"/>
<path d="M5.21157 3.39732L5.27795 3.59638L5.48776 3.598C5.51492 3.59822 5.5262 3.63288 5.50432 3.64903L5.33551 3.77369L5.39879 3.97375C5.40698 3.99966 5.37748 4.0211 5.35539 4.00529L5.18467 3.88325L5.01395 4.00529C4.99186 4.0211 4.96236 3.99966 4.97054 3.97375L5.03382 3.77369L4.86504 3.64903C4.8432 3.63291 4.85445 3.59822 4.88161 3.598L5.09142 3.59638L5.15779 3.39732C5.16654 3.37153 5.20298 3.37153 5.21157 3.39732Z" fill="#F5F5F5"/>
<path d="M5.21157 5.14699L5.27795 5.34605L5.48776 5.34768C5.51492 5.3479 5.5262 5.38255 5.50432 5.39871L5.33551 5.52337L5.39879 5.72343C5.40698 5.74934 5.37748 5.77074 5.35539 5.75496L5.18467 5.63293L5.01395 5.75496C4.99186 5.77078 4.96236 5.74934 4.97054 5.72343L5.03382 5.52337L4.86504 5.39871C4.8432 5.38259 4.85445 5.3479 4.88161 5.34768L5.09142 5.34605L5.15779 5.14699C5.16654 5.12124 5.20298 5.12124 5.21157 5.14699Z" fill="#F5F5F5"/>
<path d="M5.21157 6.71835L5.27795 6.91741L5.48776 6.91904C5.51492 6.91925 5.5262 6.95391 5.50432 6.97007L5.33551 7.09472L5.39879 7.29478C5.40698 7.32069 5.37748 7.34213 5.35539 7.32631L5.18467 7.20431L5.01395 7.32631C4.99186 7.34213 4.96236 7.32069 4.97054 7.29478L5.03382 7.09472L4.86504 6.97007C4.8432 6.95394 4.85445 6.91925 4.88161 6.91904L5.09142 6.91741L5.15779 6.71835C5.16654 6.69257 5.20298 6.69257 5.21157 6.71835Z" fill="#F5F5F5"/>
<path d="M6.01995 0.769313L6.08633 0.968375L6.29614 0.97C6.3233 0.970219 6.33458 1.00488 6.3127 1.021L6.14389 1.14566L6.20717 1.34572C6.21536 1.37163 6.18586 1.39303 6.16377 1.37725L5.99305 1.25522L5.82233 1.37725C5.80024 1.39306 5.77074 1.37163 5.77892 1.34572L5.8422 1.14566L5.67339 1.021C5.65155 1.00488 5.6628 0.970188 5.68999 0.97L5.8998 0.968375L5.96617 0.769313C5.97492 0.743563 6.01136 0.743563 6.01995 0.769313Z" fill="#F5F5F5"/>
<path d="M6.01995 2.42988L6.08633 2.62894L6.29614 2.63057C6.3233 2.63079 6.33458 2.66544 6.3127 2.6816L6.14389 2.80626L6.20717 3.00632C6.21536 3.03223 6.18586 3.05363 6.16377 3.03785L5.99305 2.91582L5.82233 3.03785C5.80024 3.05366 5.77074 3.03223 5.77892 3.00632L5.8422 2.80626L5.67339 2.6816C5.65155 2.66548 5.6628 2.63079 5.68999 2.63057L5.8998 2.62894L5.96617 2.42988C5.97492 2.4041 6.01136 2.4041 6.01995 2.42988Z" fill="#F5F5F5"/>
<path d="M6.01995 4.27151L6.08633 4.47058L6.29614 4.4722C6.3233 4.47242 6.33458 4.50708 6.3127 4.52323L6.14389 4.64789L6.20717 4.84795C6.21536 4.87385 6.18586 4.89526 6.16377 4.87948L5.99305 4.75748L5.82233 4.87948C5.80024 4.89526 5.77074 4.87385 5.77892 4.84795L5.8422 4.64789L5.67339 4.52323C5.65155 4.50711 5.6628 4.47242 5.68999 4.4722L5.8998 4.47058L5.96617 4.27151C5.97492 4.24573 6.01136 4.24573 6.01995 4.27151Z" fill="#F5F5F5"/>
<path d="M6.01995 5.96361L6.08633 6.16267L6.29614 6.1643C6.3233 6.16452 6.33458 6.19917 6.3127 6.21533L6.14389 6.33998L6.20717 6.54004C6.21536 6.56595 6.18586 6.58736 6.16377 6.57158L5.99305 6.44955L5.82233 6.57158C5.80024 6.58736 5.77074 6.56595 5.77892 6.54004L5.8422 6.33998L5.67339 6.21533C5.65155 6.1992 5.6628 6.16452 5.68999 6.1643L5.8998 6.16267L5.96617 5.96361C5.97492 5.93783 6.01136 5.93783 6.01995 5.96361Z" fill="#F5F5F5"/>
<path d="M6.01995 7.50333L6.08633 7.70239L6.29614 7.70401C6.3233 7.70423 6.33458 7.73889 6.3127 7.75505L6.14389 7.8797L6.20717 8.07976C6.21536 8.10567 6.18586 8.12707 6.16377 8.11129L5.99305 7.98929L5.82233 8.11129C5.80024 8.12707 5.77074 8.10567 5.77892 8.07976L5.8422 7.8797L5.67339 7.75505C5.65155 7.73892 5.6628 7.70423 5.68999 7.70401L5.8998 7.70239L5.96617 7.50333C5.97492 7.47755 6.01136 7.47755 6.01995 7.50333Z" fill="#F5F5F5"/>
<path d="M6.82803 1.55568L6.8944 1.75475L7.10425 1.75637C7.1314 1.75659 7.14268 1.79125 7.12081 1.80737L6.952 1.93203L7.01528 2.13209C7.02347 2.158 6.99397 2.17943 6.97187 2.16362L6.80115 2.04159L6.63044 2.16362C6.60834 2.17943 6.57884 2.158 6.58703 2.13209L6.65031 1.93203L6.4815 1.80737C6.45965 1.79125 6.4709 1.75656 6.49806 1.75637L6.7079 1.75475L6.77428 1.55568C6.783 1.5299 6.81943 1.5299 6.82803 1.55568Z" fill="#F5F5F5"/>
<path d="M6.82803 3.39732L6.8944 3.59638L7.10425 3.598C7.1314 3.59822 7.14268 3.63288 7.12081 3.64903L6.952 3.77369L7.01528 3.97375C7.02347 3.99966 6.99397 4.0211 6.97187 4.00529L6.80115 3.88325L6.63044 4.00529C6.60834 4.0211 6.57884 3.99966 6.58703 3.97375L6.65031 3.77369L6.4815 3.64903C6.45965 3.63291 6.4709 3.59822 6.49806 3.598L6.7079 3.59638L6.77428 3.39732C6.783 3.37153 6.81943 3.37153 6.82803 3.39732Z" fill="#F5F5F5"/>
<path d="M6.82803 5.14699L6.8944 5.34605L7.10425 5.34768C7.1314 5.3479 7.14268 5.38255 7.12081 5.39871L6.952 5.52337L7.01528 5.72343C7.02347 5.74934 6.99397 5.77074 6.97187 5.75496L6.80115 5.63293L6.63044 5.75496C6.60834 5.77078 6.57884 5.74934 6.58703 5.72343L6.65031 5.52337L6.4815 5.39871C6.45965 5.38259 6.4709 5.3479 6.49806 5.34768L6.7079 5.34605L6.77428 5.14699C6.783 5.12124 6.81943 5.12124 6.82803 5.14699Z" fill="#F5F5F5"/>
<path d="M6.82803 6.71835L6.8944 6.91741L7.10425 6.91904C7.1314 6.91925 7.14268 6.95391 7.12081 6.97007L6.952 7.09472L7.01528 7.29478C7.02347 7.32069 6.99397 7.34213 6.97187 7.32631L6.80115 7.20431L6.63044 7.32631C6.60834 7.34213 6.57884 7.32069 6.58703 7.29478L6.65031 7.09472L6.4815 6.97007C6.45965 6.95394 6.4709 6.91925 6.49806 6.91904L6.7079 6.91741L6.77428 6.71835C6.783 6.69257 6.81943 6.69257 6.82803 6.71835Z" fill="#F5F5F5"/>
<path d="M7.63638 0.769313L7.70276 0.968375L7.91257 0.97C7.93973 0.970219 7.95101 1.00488 7.92916 1.021L7.76035 1.14566L7.82363 1.34572C7.83182 1.37163 7.80232 1.39303 7.78023 1.37725L7.60951 1.25522L7.43879 1.37725C7.41669 1.39306 7.38719 1.37163 7.39538 1.34572L7.45866 1.14566L7.28985 1.021C7.268 1.00488 7.27925 0.970188 7.30641 0.97L7.51622 0.968375L7.5826 0.769313C7.59135 0.743563 7.62779 0.743563 7.63638 0.769313Z" fill="#F5F5F5"/>
<path d="M7.63638 2.42988L7.70276 2.62894L7.91257 2.63057C7.93973 2.63079 7.95101 2.66544 7.92916 2.6816L7.76035 2.80626L7.82363 3.00632C7.83182 3.03223 7.80232 3.05363 7.78023 3.03785L7.60951 2.91582L7.43879 3.03785C7.41669 3.05366 7.38719 3.03223 7.39538 3.00632L7.45866 2.80626L7.28985 2.6816C7.268 2.66548 7.27925 2.63079 7.30641 2.63057L7.51622 2.62894L7.5826 2.42988C7.59135 2.4041 7.62779 2.4041 7.63638 2.42988Z" fill="#F5F5F5"/>
<path d="M7.63638 4.27151L7.70276 4.47058L7.91257 4.4722C7.93973 4.47242 7.95101 4.50708 7.92916 4.52323L7.76035 4.64789L7.82363 4.84795C7.83182 4.87385 7.80232 4.89526 7.78023 4.87948L7.60951 4.75748L7.43879 4.87948C7.41669 4.89526 7.38719 4.87385 7.39538 4.84795L7.45866 4.64789L7.28985 4.52323C7.268 4.50711 7.27925 4.47242 7.30641 4.4722L7.51622 4.47058L7.5826 4.27151C7.59135 4.24573 7.62779 4.24573 7.63638 4.27151Z" fill="#F5F5F5"/>
<path d="M7.63638 5.96361L7.70276 6.16267L7.91257 6.1643C7.93973 6.16452 7.95101 6.19917 7.92916 6.21533L7.76035 6.33998L7.82363 6.54004C7.83182 6.56595 7.80232 6.58736 7.78023 6.57158L7.60951 6.44955L7.43879 6.57158C7.41669 6.58736 7.38719 6.56595 7.39538 6.54004L7.45866 6.33998L7.28985 6.21533C7.268 6.1992 7.27925 6.16452 7.30641 6.1643L7.51622 6.16267L7.5826 5.96361C7.59135 5.93783 7.62779 5.93783 7.63638 5.96361Z" fill="#F5F5F5"/>
<path d="M7.63638 7.50333L7.70276 7.70239L7.91257 7.70401C7.93973 7.70423 7.95101 7.73889 7.92916 7.75505L7.76035 7.8797L7.82363 8.07976C7.83182 8.10567 7.80232 8.12707 7.78023 8.11129L7.60951 7.98929L7.43879 8.11129C7.41669 8.12707 7.38719 8.10567 7.39538 8.07976L7.45866 7.8797L7.28985 7.75505C7.268 7.73892 7.27925 7.70423 7.30641 7.70401L7.51622 7.70239L7.5826 7.50333C7.59135 7.47755 7.62779 7.47755 7.63638 7.50333Z" fill="#F5F5F5"/>
</svg>
