<svg width="54" height="32" viewBox="0 0 54 32" fill="none" xmlns="http://www.w3.org/2000/svg">
<rect width="54" height="32" rx="2" fill="white"/>
<path d="M17.6305 27.9445V26.3502C17.6398 26.2161 17.6205 26.0816 17.5737 25.9555C17.527 25.8295 17.4539 25.7149 17.3594 25.6194C17.2648 25.5238 17.151 25.4495 17.0255 25.4014C16.8999 25.3533 16.7656 25.3326 16.6314 25.3405C16.4558 25.3291 16.2803 25.3649 16.1233 25.4444C15.9663 25.5238 15.8334 25.644 15.7386 25.7922C15.6522 25.6484 15.5286 25.5305 15.3809 25.451C15.2331 25.3715 15.0666 25.3334 14.899 25.3405C14.7529 25.3332 14.6073 25.3641 14.4768 25.4303C14.3464 25.4965 14.2354 25.5956 14.155 25.7178V25.4043H13.6023V27.9445H14.1603V26.5362C14.1482 26.4493 14.1556 26.3608 14.1818 26.2771C14.208 26.1933 14.2524 26.1165 14.3118 26.0519C14.3713 25.9874 14.4443 25.9369 14.5256 25.9039C14.6069 25.8709 14.6945 25.8564 14.7821 25.8613C15.1487 25.8613 15.3348 26.1005 15.3348 26.5309V27.9445H15.8928V26.5362C15.8816 26.4495 15.8896 26.3613 15.9161 26.278C15.9426 26.1947 15.9871 26.1182 16.0463 26.0538C16.1056 25.9895 16.1782 25.939 16.2591 25.9057C16.34 25.8724 16.4272 25.8573 16.5145 25.8613C16.8918 25.8613 17.0725 26.1005 17.0725 26.5309V27.9445H17.6305ZM25.8888 25.4043H24.9854V24.6337H24.4274V25.4043H23.9119V25.9091H24.4274V27.0676C24.4274 27.6575 24.6559 28.0083 25.3095 28.0083C25.5537 28.009 25.7932 27.9409 26.0004 27.8116L25.841 27.3387C25.6928 27.4271 25.5245 27.4764 25.3521 27.4821C25.0757 27.4821 24.9854 27.312 24.9854 27.057V25.9091H25.8888V25.4043ZM30.6025 25.3405C30.4678 25.3365 30.3344 25.369 30.2166 25.4345C30.0987 25.4999 30.0007 25.596 29.9329 25.7125V25.4043H29.3855V27.9445H29.9382V26.5203C29.9382 26.1004 30.1189 25.8666 30.4803 25.8666C30.5985 25.865 30.7159 25.8867 30.8257 25.9304L30.9958 25.4096C30.8695 25.3644 30.7366 25.3411 30.6025 25.3405ZM23.4761 25.6062C23.1633 25.4202 22.8036 25.328 22.4399 25.3405C21.7968 25.3405 21.3823 25.6487 21.3823 26.1536C21.3823 26.5681 21.6906 26.8232 22.2591 26.9029L22.5196 26.9401C22.8225 26.9825 22.966 27.0623 22.966 27.2058C22.966 27.4024 22.764 27.514 22.3867 27.514C22.0832 27.5228 21.7856 27.4292 21.5417 27.2483L21.2814 27.6788C21.6033 27.9036 21.9889 28.0191 22.3814 28.0083C23.1148 28.0083 23.5399 27.6628 23.5399 27.1792C23.5399 26.7328 23.2051 26.499 22.6524 26.4193L22.3921 26.3821C22.1529 26.3502 21.9616 26.3024 21.9616 26.1324C21.9616 25.9463 22.1422 25.8347 22.4452 25.8347C22.7233 25.8389 22.9958 25.9139 23.237 26.0526L23.4761 25.6062ZM38.2815 25.3405C38.1468 25.3365 38.0135 25.369 37.8956 25.4345C37.7778 25.4999 37.6798 25.596 37.612 25.7125V25.4043H37.0646V27.9445H37.6173V26.5203C37.6173 26.1004 37.798 25.8666 38.1593 25.8666C38.2775 25.865 38.3949 25.8867 38.5048 25.9304L38.6748 25.4096C38.5486 25.3644 38.4156 25.3411 38.2815 25.3405ZM31.1605 26.6743C31.1531 26.8533 31.1833 27.0318 31.2491 27.1984C31.3149 27.365 31.4148 27.5159 31.5425 27.6416C31.6701 27.7672 31.8227 27.8648 31.9903 27.9279C32.1579 27.9911 32.3368 28.0184 32.5156 28.0083C32.8475 28.0249 33.1735 27.9169 33.4297 27.7053L33.164 27.2589C32.9729 27.4046 32.7399 27.4847 32.4997 27.4874C32.2926 27.4749 32.0981 27.3837 31.9559 27.2326C31.8136 27.0815 31.7345 26.8819 31.7345 26.6744C31.7345 26.4669 31.8136 26.2672 31.9559 26.1161C32.0981 25.965 32.2926 25.8739 32.4997 25.8613C32.7399 25.864 32.9729 25.9442 33.164 26.0898L33.4297 25.6434C33.1735 25.4319 32.8474 25.3239 32.5156 25.3405C32.3368 25.3303 32.1579 25.3577 31.9903 25.4209C31.8227 25.484 31.6702 25.5815 31.5425 25.7072C31.4149 25.8328 31.3149 25.9837 31.2491 26.1503C31.1833 26.3169 31.1531 26.4954 31.1605 26.6743ZM36.3365 26.6743V25.4043H35.7839V25.7125C35.6895 25.5909 35.5674 25.4937 35.4278 25.429C35.2882 25.3643 35.1351 25.3339 34.9814 25.3405C34.6389 25.3573 34.3161 25.5052 34.0796 25.7535C33.8432 26.0018 33.7113 26.3315 33.7113 26.6744C33.7113 27.0173 33.8432 27.347 34.0796 27.5953C34.3161 27.8436 34.6389 27.9915 34.9814 28.0083C35.1351 28.0148 35.2882 27.9845 35.4278 27.9198C35.5675 27.855 35.6895 27.7578 35.7839 27.6362V27.9445H36.3365V26.6743ZM34.2799 26.6743C34.2885 26.5244 34.3408 26.3803 34.4303 26.2598C34.5198 26.1392 34.6426 26.0475 34.7836 25.9959C34.9246 25.9443 35.0776 25.9351 35.2238 25.9695C35.3699 26.0038 35.5028 26.0802 35.6061 26.1892C35.7094 26.2981 35.7785 26.435 35.805 26.5828C35.8314 26.7306 35.814 26.8829 35.755 27.0209C35.6959 27.1589 35.5977 27.2766 35.4726 27.3596C35.3474 27.4425 35.2007 27.4869 35.0505 27.4874C34.9453 27.4889 34.8409 27.4685 34.7439 27.4276C34.647 27.3866 34.5595 27.3261 34.4871 27.2497C34.4147 27.1733 34.3589 27.0827 34.3233 26.9837C34.2876 26.8847 34.2729 26.7793 34.2799 26.6743ZM27.6106 25.3405C27.266 25.3587 26.9417 25.5096 26.7059 25.7616C26.4701 26.0136 26.3411 26.3472 26.3459 26.6923C26.3507 27.0374 26.489 27.3672 26.7317 27.6126C26.9745 27.8579 27.3028 27.9997 27.6478 28.0083C28.027 28.0216 28.3977 27.8948 28.6894 27.6522L28.4184 27.243C28.2085 27.4112 27.9486 27.5047 27.6797 27.5087C27.4971 27.5241 27.3156 27.4678 27.1738 27.3517C27.032 27.2356 26.9408 27.0689 26.9198 26.8869H28.8063C28.8116 26.8179 28.8169 26.7488 28.8169 26.6743C28.8116 25.8826 28.3227 25.3405 27.6106 25.3405ZM27.6 25.8347C27.7669 25.8315 27.9283 25.8945 28.0488 26.0101C28.1694 26.1256 28.2392 26.2843 28.243 26.4512H26.9251C26.9348 26.2806 27.0108 26.1207 27.1369 26.0055C27.263 25.8903 27.4292 25.829 27.6 25.8347ZM41.4648 26.6743V24.384H40.9121V25.7125C40.8177 25.5909 40.6957 25.4937 40.5561 25.429C40.4164 25.3643 40.2634 25.334 40.1096 25.3405C39.7672 25.3573 39.4443 25.5052 39.2078 25.7535C38.9714 26.0018 38.8395 26.3315 38.8395 26.6744C38.8395 27.0173 38.9714 27.347 39.2078 27.5953C39.4443 27.8436 39.7672 27.9915 40.1096 28.0083C40.2634 28.0148 40.4165 27.9845 40.5561 27.9198C40.6957 27.855 40.8177 27.7578 40.9121 27.6362V27.9445H41.4648V26.6743ZM42.3861 27.5764C42.4204 27.5761 42.4544 27.5829 42.486 27.5962C42.5165 27.6089 42.5442 27.6272 42.5677 27.6503C42.5911 27.6733 42.6098 27.7006 42.6228 27.7308C42.6361 27.7617 42.6429 27.795 42.6429 27.8287C42.6429 27.8624 42.6361 27.8957 42.6228 27.9266C42.6097 27.9566 42.591 27.9838 42.5677 28.0068C42.5441 28.0298 42.5164 28.0483 42.486 28.0612C42.4545 28.0747 42.4204 28.0816 42.3861 28.0813C42.3355 28.0818 42.2859 28.0674 42.2435 28.0399C42.2011 28.0124 42.1677 27.973 42.1475 27.9266C42.1343 27.8957 42.1274 27.8624 42.1274 27.8287C42.1274 27.795 42.1343 27.7617 42.1475 27.7308C42.1605 27.7007 42.1791 27.6734 42.2023 27.6503C42.2258 27.6271 42.2537 27.6087 42.2843 27.5962C42.3166 27.5828 42.3512 27.5761 42.3861 27.5764ZM42.3861 28.0256C42.4122 28.0258 42.4382 28.0206 42.4622 28.0102C42.4853 28.0001 42.5063 27.9859 42.5241 27.9681C42.5608 27.931 42.5813 27.881 42.5813 27.8288C42.5813 27.7767 42.5608 27.7266 42.5241 27.6896C42.5063 27.6718 42.4853 27.6577 42.4622 27.6478C42.4381 27.6376 42.4122 27.6324 42.3861 27.6327C42.3594 27.6325 42.333 27.6376 42.3084 27.6478C42.285 27.6575 42.2636 27.6717 42.2456 27.6896C42.2089 27.7266 42.1883 27.7767 42.1883 27.8288C42.1883 27.881 42.2089 27.931 42.2456 27.9681C42.2637 27.986 42.285 28.0003 42.3084 28.0102C42.333 28.0205 42.3594 28.0258 42.3861 28.0256ZM42.4009 27.7106C42.4258 27.709 42.4504 27.7161 42.4706 27.7308C42.4786 27.7374 42.485 27.7458 42.4892 27.7553C42.4935 27.7648 42.4954 27.7751 42.495 27.7855C42.4953 27.7944 42.4937 27.8033 42.4903 27.8116C42.487 27.8198 42.4819 27.8273 42.4755 27.8334C42.4601 27.8471 42.4406 27.8553 42.4201 27.8567L42.4968 27.9452H42.4368L42.3657 27.8573H42.3428V27.9452H42.2927V27.7106H42.4009ZM42.3428 27.7546V27.8171H42.4003C42.4114 27.8176 42.4224 27.8149 42.4319 27.8093C42.4358 27.8067 42.4389 27.8032 42.441 27.799C42.443 27.7948 42.4439 27.7902 42.4436 27.7855C42.4439 27.781 42.4429 27.7764 42.4409 27.7723C42.4388 27.7683 42.4357 27.7648 42.4319 27.7623C42.4223 27.7567 42.4114 27.754 42.4003 27.7546H42.3428ZM39.4082 26.6743C39.4168 26.5244 39.469 26.3803 39.5585 26.2598C39.648 26.1393 39.7708 26.0476 39.9118 25.996C40.0528 25.9444 40.2059 25.9352 40.352 25.9696C40.4982 26.0039 40.6311 26.0803 40.7343 26.1893C40.8376 26.2982 40.9067 26.435 40.9332 26.5828C40.9596 26.7306 40.9422 26.8829 40.8831 27.0209C40.8241 27.159 40.7259 27.2767 40.6007 27.3596C40.4755 27.4425 40.3288 27.4869 40.1787 27.4874C40.0735 27.4889 39.9691 27.4685 39.8721 27.4275C39.7752 27.3866 39.6877 27.326 39.6154 27.2497C39.543 27.1733 39.4872 27.0827 39.4515 26.9837C39.4159 26.8847 39.4011 26.7793 39.4082 26.6743ZM20.7446 26.6743V25.4043H20.1919V25.7125C20.0976 25.5909 19.9755 25.4937 19.8359 25.429C19.6963 25.3643 19.5432 25.3339 19.3895 25.3405C19.047 25.3573 18.7241 25.5052 18.4877 25.7535C18.2513 26.0018 18.1194 26.3315 18.1194 26.6744C18.1194 27.0173 18.2513 27.347 18.4877 27.5953C18.7241 27.8436 19.047 27.9915 19.3895 28.0083C19.5432 28.0148 19.6963 27.9845 19.8359 27.9198C19.9755 27.855 20.0976 27.7578 20.1919 27.6362V27.9445H20.7446V26.6743ZM18.688 26.6743C18.6966 26.5244 18.7489 26.3803 18.8384 26.2598C18.9279 26.1393 19.0507 26.0476 19.1917 25.996C19.3327 25.9444 19.4857 25.9352 19.6319 25.9696C19.778 26.0039 19.9109 26.0803 20.0142 26.1893C20.1175 26.2982 20.1866 26.4351 20.213 26.5828C20.2395 26.7306 20.2221 26.8829 20.163 27.0209C20.1039 27.159 20.0058 27.2767 19.8806 27.3596C19.7554 27.4425 19.6087 27.4869 19.4586 27.4874C19.3533 27.4889 19.249 27.4685 19.152 27.4275C19.055 27.3866 18.9676 27.326 18.8952 27.2497C18.8228 27.1733 18.767 27.0827 18.7314 26.9837C18.6957 26.8847 18.681 26.7793 18.688 26.6743Z" fill="#231F20"/>
<path d="M31.6662 6.04546H23.2952V21.0885H31.6662V6.04546Z" fill="#FF5F00"/>
<path d="M23.825 13.5669C23.8237 12.1182 24.152 10.6881 24.785 9.38499C25.4181 8.08187 26.3393 6.93986 27.479 6.04541C26.0677 4.93608 24.3727 4.24621 22.5879 4.05464C20.803 3.86307 19.0003 4.17753 17.3857 4.96209C15.7711 5.74664 14.4098 6.96963 13.4574 8.49127C12.5051 10.0129 12 11.7718 12 13.5669C12 15.362 12.5051 17.1209 13.4574 18.6426C14.4098 20.1642 15.7711 21.3872 17.3857 22.1717C19.0003 22.9563 20.803 23.2708 22.5879 23.0792C24.3727 22.8876 26.0677 22.1977 27.479 21.0884C26.3393 20.194 25.4181 19.052 24.785 17.7488C24.152 16.4457 23.8237 15.0157 23.825 13.5669Z" fill="#EB001B"/>
<path d="M42.9592 13.5669C42.9593 15.362 42.4543 17.1209 41.502 18.6425C40.5496 20.1642 39.1884 21.3872 37.5738 22.1717C35.9593 22.9563 34.1566 23.2708 32.3717 23.0792C30.5869 22.8876 28.892 22.1977 27.4807 21.0884C28.6194 20.1931 29.5399 19.0509 30.1728 17.748C30.8058 16.445 31.1347 15.0154 31.1347 13.5669C31.1347 12.1184 30.8058 10.6888 30.1728 9.38587C29.5399 8.08296 28.6194 6.94076 27.4807 6.04541C28.892 4.93608 30.5869 4.2462 32.3717 4.05464C34.1566 3.86307 35.9593 4.17754 37.5738 4.9621C39.1884 5.74666 40.5496 6.96966 41.502 8.4913C42.4543 10.0129 42.9593 11.7718 42.9592 13.5669Z" fill="#F79E1B"/>
<path d="M42.0466 19.4948V19.1868H42.1708V19.1241H41.8545V19.1868H41.9787V19.4948H42.0466ZM42.6606 19.4948V19.1235H42.5636L42.4521 19.3789L42.3406 19.1235H42.2436V19.4948H42.3121V19.2147L42.4166 19.4562H42.4876L42.5922 19.2141V19.4948H42.6606Z" fill="#F79E1B"/>
</svg>
