<svg width="36" height="24" viewBox="0 0 36 24" fill="none" xmlns="http://www.w3.org/2000/svg">
<path d="M6.4599 5.05263C6.4599 2.26214 8.72204 0 11.5125 0H25.4073C28.1978 0 30.4599 2.26214 30.4599 5.05263V18.9474C30.4599 21.7379 28.1978 24 25.4073 24H11.5125C8.72204 24 6.4599 21.7379 6.4599 18.9474V5.05263Z" fill="#00AAEE"/>
<path d="M22.0168 14.4975C21.1381 13.568 19.6622 13.5176 18.7205 14.3852C11.3769 21.1496 0.579966 18.4728 0.579966 18.4728V18.473C0.431732 18.4364 0.268207 18.472 0.148221 18.5827C-0.0401809 18.7562 -0.0502879 19.0475 0.125416 19.2335C0.173618 19.2844 0.230632 19.3215 0.292051 19.346C0.292051 19.3463 0.292051 19.3463 0.292051 19.3465C0.294642 19.3476 0.297491 19.3483 0.300342 19.3494C0.31304 19.3537 0.325998 19.3578 0.339214 19.3621C2.33622 19.9983 8.43299 19.777 9.26563 19.7435C9.32731 19.741 9.36048 19.7397 9.36048 19.7397C9.61756 19.7545 9.81399 19.9725 9.7987 20.2262C9.78367 20.4799 9.56288 20.6738 9.3058 20.6587C8.28786 20.9381 6.42094 20.9342 6.03092 20.9301C6.00708 20.9281 5.98298 20.9276 5.95914 20.9291C5.95888 20.9291 5.9581 20.9291 5.9581 20.9291C5.85522 20.9363 5.75415 20.9767 5.67278 21.0516C5.48438 21.2251 5.47427 21.5164 5.64997 21.7024C5.73834 21.7957 5.85678 21.8446 5.9765 21.8484C8.77066 21.985 13.4449 20.4805 14.0835 20.2697C14.125 20.2559 14.1493 20.2477 14.155 20.2459C14.1558 20.2456 14.1566 20.2454 14.1566 20.2454V20.2456C14.3147 20.208 14.4883 20.2531 14.607 20.3789C14.7827 20.5649 14.7726 20.8562 14.5842 21.0296C14.544 21.0667 14.4986 21.0949 14.4507 21.1153C14.4504 21.1156 14.4502 21.1161 14.4499 21.1164C14.3737 21.1736 13.7336 21.3752 13.304 21.5064C13.1671 21.4852 13.0223 21.5238 12.9132 21.6243C12.7248 21.7978 12.7147 22.0891 12.8904 22.2751C13.0477 22.4413 13.3001 22.4664 13.4864 22.3459L13.4908 22.3516C18.4924 20.8933 21.9028 17.7517 21.9028 17.7517C22.8448 16.8838 22.8956 15.4268 22.0168 14.4975Z" fill="#FFEA00"/>
<path d="M21.4549 17.187C21.9362 16.5692 21.9893 15.8533 21.3192 15.1432C20.791 14.5835 19.9029 14.5554 19.3364 15.077C16.7659 17.4443 15.4165 17.9096 15.2185 17.9687C15.2144 17.9697 15.2105 17.971 15.2063 17.9723C15.1975 17.9748 15.1928 17.9758 15.1928 17.9758V17.9761C15.1485 17.9914 15.1076 18.0198 15.0773 18.0636C15.0241 18.1401 15.0234 18.2436 15.0757 18.3204C15.1327 18.4038 15.2299 18.4365 15.3188 18.4178C15.3434 18.4127 15.3675 18.4038 15.3898 18.3905C16.2579 18.0436 18.038 16.9028 18.038 16.9028C18.1243 16.8235 18.2503 16.7874 18.3773 16.8243C18.5255 16.8672 18.6287 17.0061 18.6266 17.1586C18.6255 17.243 18.5944 17.3179 18.5449 17.376C18.5444 17.3765 18.5442 17.3773 18.5439 17.3778C18.3853 17.5932 18.0637 17.8469 17.9554 17.9295C17.9308 17.9446 17.9082 17.9643 17.8896 17.9896C17.8243 18.0776 17.832 18.2032 17.9077 18.2828C17.9956 18.3754 18.143 18.3805 18.2371 18.2938C18.4234 18.2096 19.4193 17.5198 19.4193 17.5198C19.5134 17.433 19.6611 17.4382 19.749 17.531C19.8368 17.6239 19.8316 17.7697 19.7376 17.8564C19.5476 18.1035 19.2076 18.37 19.0938 18.456C19.0477 18.4836 19.0086 18.5281 18.9876 18.5933C18.97 18.6481 18.9772 18.7087 19.0062 18.7588C19.091 18.9059 19.2441 18.9005 19.3737 18.8215C20.1973 18.3429 20.854 17.8078 21.18 17.5075C21.1989 17.4901 21.3855 17.276 21.4549 17.187Z" fill="#FBB040"/>
<path d="M18.468 19.3928C18.567 19.3115 18.5802 19.1662 18.4978 19.0685C18.4154 18.9707 18.2682 18.9577 18.1692 19.039C18.1692 19.039 17.5921 19.4404 17.081 19.6683C16.9849 19.7141 16.9818 19.7166 16.945 19.7471C16.846 19.8284 16.8328 19.9737 16.9152 20.0714C16.9976 20.1691 17.1448 20.1822 17.2438 20.1008C17.2438 20.1008 18.0406 19.6578 18.418 19.424C18.4356 19.4158 18.4524 19.4056 18.468 19.3928Z" fill="#FBB040"/>
<path d="M17.5605 18.7191C17.5861 18.7043 17.6095 18.6846 17.6286 18.6582C17.6968 18.5641 17.6833 18.4301 17.5965 18.3526C17.5089 18.2743 17.3788 18.274 17.2912 18.3459C17.2622 18.3697 17.2332 18.3932 17.2016 18.4132C17.0629 18.5002 16.8517 18.6137 16.7379 18.6738C16.6833 18.6902 16.6335 18.726 16.6014 18.782C16.5542 18.8644 16.5643 18.9695 16.6262 19.0417C16.6952 19.122 16.8025 19.1424 16.8916 19.1077C17.058 19.0488 17.3265 18.8734 17.4856 18.7641C17.5094 18.7478 17.5351 18.7337 17.5605 18.7191Z" fill="#FBB040"/>
<path d="M16.3796 20.4649C16.4402 20.4518 16.4964 20.4145 16.5325 20.3536C16.576 20.2799 16.5731 20.1858 16.5255 20.1147C16.4612 20.0193 16.3474 19.9896 16.2515 20.0231C16.2463 20.0246 16.2414 20.0267 16.236 20.029C16.2339 20.03 16.2318 20.031 16.2298 20.0318C16.2287 20.0323 16.2277 20.0326 16.2269 20.0333C16.2264 20.0336 16.2259 20.0339 16.2256 20.0341C16.2197 20.0369 16.2137 20.0402 16.208 20.0436C16.1139 20.0935 16.009 20.1275 15.9053 20.1625C15.8856 20.1692 15.8426 20.1837 15.8221 20.1886C15.7599 20.2032 15.691 20.2265 15.648 20.2871C15.5912 20.3671 15.593 20.4774 15.6526 20.5554C15.7153 20.6375 15.8169 20.6644 15.9058 20.6385C15.9571 20.6286 16.1932 20.5352 16.3428 20.4751C16.3549 20.4705 16.3671 20.4677 16.3796 20.4649Z" fill="#FBB040"/>
<path d="M16.2447 19.3754C16.3051 19.3498 16.3574 19.2997 16.3818 19.2158C16.3927 19.1777 16.3916 19.137 16.3787 19.0994C16.3178 18.9229 16.1131 18.8858 15.9938 18.9956C15.813 19.1365 15.1674 19.3997 14.8424 19.5276C14.8253 19.5343 14.8077 19.5389 14.7893 19.5406C14.7046 19.5486 14.6229 19.6018 14.5856 19.7033C14.5716 19.7412 14.5703 19.7831 14.582 19.8218C14.6292 19.9796 14.7867 20.0333 14.908 19.9788C14.9199 19.9734 14.9316 19.9686 14.944 19.9647C15.2602 19.8714 16.161 19.4122 16.2398 19.3769C16.2413 19.3769 16.2431 19.3762 16.2447 19.3754Z" fill="#FBB040"/>
<path d="M14.4242 18.7744C14.4683 18.7578 14.5085 18.7276 14.538 18.6826C14.5836 18.6125 14.587 18.5211 14.5455 18.4485C14.4908 18.3531 14.3869 18.3147 14.2926 18.3344C14.2926 18.3344 14.2926 18.3342 14.2923 18.3342C14.2918 18.3344 14.2913 18.3344 14.291 18.3347C14.2724 18.3388 14.254 18.3449 14.2363 18.3536C14.226 18.3587 14.2159 18.3638 14.205 18.3677C13.8334 18.5032 13.0878 18.6987 12.8336 18.7639C12.8237 18.7665 12.8136 18.768 12.8038 18.7695C12.7506 18.7777 12.6996 18.8041 12.661 18.8493C12.5814 18.9429 12.592 19.0867 12.6846 19.1683C12.7587 19.2335 12.8325 19.2138 12.9613 19.2C13.4136 19.1427 14.3338 18.8069 14.4175 18.7767C14.4198 18.7759 14.4219 18.7751 14.4242 18.7744Z" fill="#FBB040"/>
<path d="M11.9978 19.4227C11.998 19.4227 11.9986 19.4225 11.9986 19.4225C12.033 19.4128 12.0657 19.3954 12.0937 19.3695C12.1877 19.2828 12.1929 19.137 12.1051 19.0442C12.0545 18.9907 11.9841 18.9664 11.9154 18.972H11.9151C11.8358 18.9756 11.1245 19.0989 11.0685 19.1086C11.0682 19.1086 11.0677 19.1089 11.0674 19.1089C11.0656 19.1092 11.0646 19.1094 11.0646 19.1094C11.0216 19.1168 10.9801 19.136 10.9456 19.1677C10.8516 19.2544 10.8464 19.4002 10.9342 19.4931C10.9713 19.5322 11.019 19.5558 11.069 19.5634C11.0752 19.565 11.0817 19.566 11.089 19.5657C11.0892 19.5657 11.0897 19.5657 11.0903 19.5657C11.1019 19.5665 11.1136 19.5662 11.1252 19.5655C11.3738 19.5586 11.8545 19.455 11.9724 19.4289C11.9807 19.4271 11.9892 19.4251 11.9978 19.4227Z" fill="#FBB040"/>
<path d="M22.6818 13.8849C24.282 15.5772 27.9467 14.0734 31.1959 11.0804C36.3208 6.35955 35.1293 2.41885 35.1293 2.41885C35.1293 2.41885 31.2286 0.973889 26.1036 5.69475C22.8544 8.6875 20.9224 12.0243 22.6818 13.8849Z" fill="white"/>
<path d="M31.1959 11.0802C36.3208 6.35959 35.1293 2.41888 35.1293 2.41888C35.1293 2.41888 35.0754 6.31713 30.5947 10.4446C30.0214 10.9728 24.3717 15.5054 22.7202 13.9236C24.3398 15.5529 27.9721 14.0499 31.1959 11.0802Z" fill="#D6D6D6"/>
<path d="M35.1292 2.41891C35.1292 2.41891 32.815 1.56176 29.4095 3.32518C29.7005 4.36215 30.2414 5.34745 31.0367 6.18875C31.832 7.03004 32.7904 7.63064 33.8187 7.98874C35.8359 4.75683 35.1292 2.41891 35.1292 2.41891Z" fill="#FF3B27"/>
<path fill-rule="evenodd" clip-rule="evenodd" d="M29.1236 3.18303C29.2476 3.14861 29.3764 3.21993 29.4112 3.34232C29.7049 4.37286 30.2457 5.35131 31.037 6.18841L31.0371 6.18841C31.8141 7.01038 32.7457 7.60359 33.746 7.96593C33.8669 8.00973 33.9289 8.142 33.8845 8.26136C33.8402 8.38072 33.7062 8.44196 33.5852 8.39816C32.518 8.01154 31.5241 7.3785 30.696 6.50253C29.8527 5.61048 29.2755 4.56665 28.9622 3.46697C28.9273 3.34458 28.9996 3.21745 29.1236 3.18303Z" fill="#00AAEE"/>
<path d="M35.1884 4.38926C35.3537 3.16198 35.1293 2.41891 35.1293 2.41891C35.1293 2.41891 34.3938 2.14649 33.1418 2.22476C33.3074 2.69184 33.5715 3.13333 33.9356 3.51855C34.2997 3.90326 34.7279 4.19384 35.1884 4.38926Z" fill="#00AAEE"/>
<path d="M35.1884 4.38901C35.0503 4.33044 34.915 4.26291 34.7833 4.18719C34.4996 5.10727 33.9833 6.32074 33.0432 7.66799C33.2704 7.779 33.5047 7.8785 33.7457 7.96598C33.7698 7.97468 33.7913 7.98696 33.8102 8.00179C34.6965 6.58651 35.0601 5.34183 35.1884 4.38901Z" fill="#D63221"/>
<path d="M35.189 4.38671C35.1939 4.35089 35.1983 4.3156 35.2024 4.28081C35.204 4.26853 35.205 4.25651 35.2066 4.24423C35.2092 4.22121 35.2118 4.19793 35.2141 4.17542C35.2157 4.16161 35.2167 4.14805 35.2183 4.1345C35.2203 4.11352 35.2224 4.0928 35.2242 4.07208C35.2255 4.05827 35.2265 4.04471 35.2276 4.03116C35.2291 4.0112 35.2307 3.99125 35.2322 3.97156C35.2333 3.95826 35.2341 3.9447 35.2351 3.93165C35.2364 3.91196 35.2377 3.89226 35.2387 3.87282C35.2395 3.86029 35.2403 3.84775 35.2408 3.83522C35.2418 3.81501 35.2429 3.79506 35.2437 3.77537C35.2442 3.76411 35.2447 3.75311 35.245 3.74211C35.2457 3.72012 35.2465 3.69837 35.247 3.67689C35.2473 3.66845 35.2475 3.66 35.2478 3.65182C35.2491 3.59171 35.2496 3.53339 35.2494 3.47711C35.2494 3.47174 35.2494 3.46663 35.2491 3.46126C35.2488 3.439 35.2486 3.41675 35.2483 3.39526C35.2481 3.38708 35.2481 3.37915 35.2478 3.37096C35.2473 3.35229 35.2468 3.33387 35.2462 3.31597C35.246 3.30727 35.2457 3.29883 35.2452 3.29039C35.2447 3.27299 35.2439 3.25611 35.2431 3.23923C35.2426 3.23079 35.2424 3.2226 35.2418 3.21416C35.2411 3.19754 35.24 3.18117 35.239 3.16479C35.2385 3.15712 35.238 3.14945 35.2377 3.14177C35.2367 3.12489 35.2354 3.10852 35.2343 3.09215C35.2338 3.08576 35.2333 3.07936 35.233 3.07297C35.2315 3.05455 35.2302 3.0369 35.2286 3.01925C35.2284 3.01541 35.2278 3.01132 35.2276 3.00748C35.2237 2.96374 35.2193 2.92256 35.2146 2.88343C35.2144 2.88138 35.2141 2.87933 35.2139 2.87729C35.2118 2.8604 35.2097 2.84378 35.2076 2.82792C35.2071 2.82357 35.2063 2.81922 35.2058 2.81487C35.204 2.80157 35.2022 2.78827 35.2004 2.77574C35.1996 2.77062 35.1988 2.76576 35.1983 2.7609C35.1965 2.74914 35.1949 2.73788 35.1931 2.72663C35.1923 2.72177 35.1916 2.71665 35.1908 2.71205C35.189 2.7013 35.1874 2.69082 35.1856 2.68058C35.1848 2.67624 35.184 2.67163 35.1833 2.66754C35.1815 2.65705 35.1796 2.64708 35.1778 2.6371C35.1773 2.63352 35.1765 2.62994 35.176 2.62661C35.1739 2.61587 35.1721 2.60538 35.1701 2.59541C35.1695 2.59336 35.1693 2.59131 35.1688 2.58927C35.1641 2.56522 35.1594 2.54348 35.1553 2.5243C35.155 2.52276 35.1548 2.52148 35.1543 2.5202C35.1524 2.51253 35.1509 2.50511 35.1493 2.49846C35.1488 2.4959 35.1483 2.4936 35.1478 2.4913C35.1465 2.48593 35.1452 2.48056 35.1441 2.4757C35.1436 2.47339 35.1431 2.47135 35.1426 2.46905C35.1415 2.4647 35.1405 2.4606 35.1395 2.45702C35.139 2.45498 35.1384 2.45293 35.1379 2.45114C35.1371 2.44781 35.1364 2.44475 35.1356 2.44193C35.1353 2.4404 35.1348 2.43886 35.1346 2.43758C35.1338 2.43503 35.1333 2.43247 35.1327 2.43042C35.1325 2.4294 35.1322 2.42837 35.132 2.42761C35.1314 2.42531 35.1309 2.42351 35.1304 2.42224C35.1304 2.42224 35.1304 2.42198 35.1304 2.42172C35.1301 2.42045 35.1299 2.41968 35.1299 2.41968C35.1299 2.41968 35.1203 3.09803 34.7842 4.18821C34.9158 4.26393 35.0508 4.33145 35.1892 4.39003C35.1887 4.38824 35.1887 4.38747 35.189 4.38671Z" fill="#008FC8"/>
<path d="M29.161 6.45828C29.5751 6.45828 29.9587 6.62276 30.2411 6.92152C30.5104 7.20621 30.6511 7.57737 30.6374 7.96668C30.6236 8.35599 30.4575 8.71666 30.1688 8.98242C29.8944 9.23514 29.5365 9.37455 29.1613 9.37455C28.7471 9.37455 28.3633 9.21008 28.0809 8.91131C27.8116 8.62662 27.6709 8.25547 27.6846 7.86615C27.6984 7.47684 27.8645 7.11618 28.1532 6.85041C28.4279 6.59743 28.7858 6.45828 29.161 6.45828ZM29.161 6.30481C28.7622 6.30481 28.362 6.44831 28.0474 6.73812C27.3882 7.34536 27.3527 8.3652 27.9679 9.01567C28.2895 9.35562 28.7251 9.52777 29.1618 9.52777C29.5606 9.52777 29.9607 9.38427 30.2754 9.09446C30.9346 8.48721 30.9701 7.46738 30.3549 6.8169C30.0333 6.4767 29.5977 6.30481 29.161 6.30481Z" fill="#FF3B27"/>
<path d="M29.1611 6.45831V6.61179C29.5317 6.61179 29.8748 6.75887 30.1275 7.02617C30.6248 7.55207 30.5958 8.37904 30.0629 8.8699C29.8173 9.09602 29.4972 9.22085 29.1616 9.22085C28.791 9.22085 28.4477 9.07377 28.195 8.80647C27.9542 8.5517 27.8283 8.21968 27.8405 7.8713C27.8527 7.52317 28.0014 7.20036 28.2595 6.96248C28.5052 6.73636 28.8252 6.61179 29.1608 6.61179L29.1611 6.45831ZM29.1611 6.45831C28.8001 6.45831 28.4383 6.58825 28.1535 6.85044C27.5572 7.39988 27.5248 8.32251 28.0815 8.91109C28.3725 9.2188 28.7664 9.37432 29.1616 9.37432C29.5226 9.37432 29.8844 9.24438 30.1692 8.98219C30.7655 8.43276 30.7979 7.51012 30.2412 6.92155C29.9505 6.61383 29.5563 6.45831 29.1611 6.45831Z" fill="white"/>
<path d="M29.1614 9.22082C29.8913 9.22082 30.4831 8.63676 30.4831 7.91629C30.4831 7.19581 29.8913 6.61176 29.1614 6.61176C28.4315 6.61176 27.8397 7.19581 27.8397 7.91629C27.8397 8.63676 28.4315 9.22082 29.1614 9.22082Z" fill="#00AAEE"/>
<path d="M25.3414 13.9962L27.7367 12.9906C27.8059 12.9615 27.8863 12.9784 27.9376 13.0326C27.9837 13.0814 27.998 13.152 27.9744 13.2147L27.1119 15.5022C27.1 15.5342 27.0788 15.5618 27.0513 15.5823L23.7194 18.032C23.6867 18.0561 23.6471 18.0683 23.6064 18.0668L23.5147 18.0637C23.4159 18.0604 23.3387 17.9786 23.3421 17.8814L23.346 17.7726C23.347 17.744 23.355 17.7159 23.3696 17.6908L24.932 15.0063C24.9405 14.9914 24.947 14.9756 24.9509 14.9589L25.1279 14.2195C25.1359 14.1854 25.1541 14.1547 25.18 14.131L25.2898 14.0299C25.3046 14.0156 25.3222 14.0043 25.3414 13.9962Z" fill="#FF3B27"/>
<path d="M22.7494 11.2549L23.9309 8.96555C23.9651 8.8993 23.9537 8.81923 23.9024 8.76501C23.8563 8.71615 23.786 8.69722 23.721 8.71615L21.3495 9.40755C21.3163 9.41727 21.2868 9.43594 21.2645 9.46178L18.5587 12.5737C18.5323 12.6042 18.517 12.6425 18.5157 12.6827L18.5126 12.7732C18.5092 12.8707 18.5865 12.9523 18.6852 12.9556L18.7954 12.9595C18.8244 12.9605 18.8534 12.9543 18.8796 12.9418L21.7007 11.5884C21.7162 11.581 21.7328 11.5759 21.7499 11.5731L22.5097 11.4498C22.5445 11.4442 22.5768 11.4286 22.6028 11.4048L22.7126 11.3037C22.7274 11.2899 22.7398 11.2733 22.7494 11.2549Z" fill="#FF3B27"/>
<path d="M25.7509 11.0577C25.7509 11.0577 26.2282 11.5626 25.7167 12.0338C25.2051 12.5049 21.1357 15.624 21.1357 15.624C21.1357 15.624 20.6241 16.0952 20.465 15.9269C20.3059 15.7586 20.8174 15.2874 20.8174 15.2874L24.762 11.0242C24.762 11.0239 25.2735 10.5527 25.7509 11.0577Z" fill="#FF3B27"/>
</svg>
