<svg width="35" height="32" viewBox="0 0 35 32" fill="none" xmlns="http://www.w3.org/2000/svg">
<rect width="35" height="32" rx="2" fill="white"/>
<path d="M2.96484 2.9669V29.0488H18.1709C28.2017 29.0488 32.5515 23.4313 32.5515 15.9823C32.5515 8.56222 28.2017 2.9669 18.1709 2.9669H2.96484Z" fill="white"/>
<path d="M4.6084 4.61197H18.173C27.3796 4.61197 30.9086 9.63963 30.9086 15.9819C30.9086 23.5869 25.9806 27.4029 18.173 27.4029H4.6084V4.61197ZM5.92341 5.92698V26.0887H18.173C25.5685 26.0887 29.5923 22.6426 29.5923 15.9819C29.5923 9.13671 25.2304 5.92657 18.173 5.92657H5.92341V5.92698Z" fill="black"/>
<path d="M7.56689 17.4646H11.4882V24.4436H7.56689V17.4646Z" fill="black"/>
<path d="M9.52713 16.3851C10.8731 16.3851 11.9642 15.294 11.9642 13.9481C11.9642 12.6022 10.8731 11.511 9.52713 11.511C8.18119 11.511 7.09009 12.6022 7.09009 13.9481C7.09009 15.294 8.18119 16.3851 9.52713 16.3851Z" fill="black"/>
<path d="M19.7113 15.0882V16.2183H16.9173V11.6835H19.6221V12.8132H18.047V13.3382H19.5364V14.4683H18.047V15.0886L19.7113 15.0882ZM20.2002 16.2191L21.5674 11.6819H23.1747L24.5416 16.2191H23.3657L23.1092 15.3415H21.6314L21.3745 16.2191H20.2002ZM21.9626 14.2126H22.7803L22.4053 12.931H22.3369L21.9626 14.2126ZM25.1096 11.6823H26.2401V15.0886H27.9133C27.4542 8.90796 22.593 7.57245 18.1732 7.57245H13.4627V11.6847H14.1598C15.431 11.6847 16.2202 12.5466 16.2202 13.9336C16.2202 15.3648 15.4499 16.2191 14.1598 16.2191H13.4627V24.4468H18.1736C25.3561 24.4468 27.8575 21.1109 27.9459 16.2183H25.1096V11.6823ZM13.4619 12.8144V15.0886H14.1598C14.6435 15.0886 15.0905 14.9487 15.0905 13.9332C15.0905 12.9414 14.5932 12.8144 14.1598 12.8144H13.4619Z" fill="#D50072"/>
</svg>
