<svg width="51" height="32" viewBox="0 0 51 32" fill="none" xmlns="http://www.w3.org/2000/svg">
<path d="M51 30.1135C51 31.1616 50.157 32 49.1033 32H1.89669C0.842973 32 0 31.1616 0 30.1135V1.88647C0 0.838431 0.842973 0 1.89669 0H49.1033C50.157 0 51 0.838431 51 1.88647V30.1135Z" fill="white"/>
<path d="M19.3884 9.29259L13.6983 22.7773H9.97517L7.16525 12.0175C7.02476 11.3887 6.81401 11.1092 6.32228 10.8297C5.4793 10.4105 4.07434 9.92141 2.88013 9.7118L2.95037 9.29259H8.92145C9.69418 9.29259 10.3967 9.78167 10.5372 10.69L12.0124 18.5153L15.6653 9.36245H19.3884V9.29259ZM33.9297 18.3756C33.9297 14.8122 29.0124 14.6026 29.0124 13.0655C29.0124 12.5764 29.5041 12.0873 30.4876 11.9476C30.9793 11.8777 32.3843 11.8079 33.9297 12.5764L34.562 9.7118C33.719 9.43232 32.6653 9.08298 31.2603 9.08298C27.8182 9.08298 25.3595 10.8996 25.3595 13.5546C25.3595 15.5109 27.1157 16.559 28.4504 17.1878C29.7851 17.8166 30.2768 18.2358 30.2768 18.8646C30.2768 19.7729 29.2231 20.1922 28.1694 20.1922C26.4132 20.1922 25.3595 19.7031 24.5867 19.3537L23.9545 22.2882C24.7975 22.6376 26.2727 22.9869 27.8182 22.9869C31.471 22.9869 33.8595 21.1703 33.9297 18.3756ZM43.062 22.7773H46.2934L43.4834 9.29259H40.4628C39.7603 9.29259 39.1983 9.7118 38.9876 10.2708L33.719 22.7773H37.3719L38.0744 20.7511H42.5702L43.062 22.7773ZM39.1281 18.0262L40.9545 12.9956L42.0082 18.0262H39.1281ZM24.376 9.29259L21.4958 22.7773H17.9834L20.8636 9.29259H24.376Z" fill="#263238"/>
</svg>
